<svg width="40" height="40" viewBox="0 0 40 40" fill="none" xmlns="http://www.w3.org/2000/svg">
<path d="M0 11C0 4.92487 4.92487 0 11 0H29C35.0751 0 40 4.92487 40 11V29C40 35.0751 35.0751 40 29 40H11C4.92487 40 0 35.0751 0 29V11Z" fill="url(#paint0_linear_2028_42)"/>
<path d="M16.333 10.958C17.338 9.13003 19.6349 8.46284 21.4629 9.46777L22.3174 9.9375C24.1452 10.9426 24.8126 13.2394 23.8076 15.0674L20.5967 20.9053C19.9139 20.442 19.0798 20.1898 18.1924 20.2373C16.0342 20.3531 14.3785 22.1962 14.4941 24.3545C14.6098 26.5128 16.453 28.1683 18.6113 28.0527C20.7697 27.9371 22.4252 26.0939 22.3096 23.9355C22.2907 23.584 22.2255 23.2461 22.1211 22.9268L28.3027 22.8721C30.3887 22.8533 32.0955 24.5293 32.1143 26.6152L32.123 27.5898C32.1416 29.6756 30.4657 31.3816 28.3799 31.4004L12.0537 31.5469C10.2693 31.5629 8.7635 30.3388 8.35352 28.6787C7.86419 27.6253 7.86533 26.3615 8.46777 25.2656L16.333 10.958Z" fill="white"/>
<defs>
<linearGradient id="paint0_linear_2028_42" x1="0.000295558" y1="4.60782" x2="37" y2="39" gradientUnits="userSpaceOnUse">
<stop stop-color="#FC6E35"/>
<stop offset="1" stop-color="#FB2C3C"/>
</linearGradient>
</defs>
</svg>
