<svg width="203" height="40" viewBox="0 0 203 40" fill="none" xmlns="http://www.w3.org/2000/svg">
<path d="M0 11C0 4.92487 4.92487 0 11 0H29C35.0751 0 40 4.92487 40 11V29C40 35.0751 35.0751 40 29 40H11C4.92487 40 0 35.0751 0 29V11Z" fill="url(#paint0_linear_2028_33)"/>
<path d="M16.333 10.958C17.338 9.13003 19.6349 8.46284 21.4629 9.46777L22.3174 9.9375C24.1452 10.9426 24.8126 13.2394 23.8076 15.0674L20.5967 20.9053C19.9139 20.442 19.0798 20.1898 18.1924 20.2373C16.0342 20.3531 14.3785 22.1962 14.4941 24.3545C14.6098 26.5128 16.453 28.1683 18.6113 28.0527C20.7697 27.9371 22.4252 26.0939 22.3096 23.9355C22.2907 23.584 22.2255 23.2461 22.1211 22.9268L28.3027 22.8721C30.3887 22.8533 32.0955 24.5293 32.1143 26.6152L32.123 27.5898C32.1416 29.6756 30.4657 31.3816 28.3799 31.4004L12.0537 31.5469C10.2693 31.5629 8.7635 30.3388 8.35352 28.6787C7.86419 27.6253 7.86533 26.3615 8.46777 25.2656L16.333 10.958Z" fill="white"/>
<path d="M53.9402 29.4999V9.42492H57.6049V26.2664H66.2008V29.4999H53.9402Z" fill="#0D1220"/>
<path d="M73.5024 29.8233C72.3706 29.8233 71.3826 29.5718 70.5383 29.0688C69.7119 28.5658 69.0742 27.8652 68.6251 26.967C68.1939 26.0688 67.9784 25.0179 67.9784 23.8143V14.8411H71.5083V23.5178C71.5083 24.1286 71.6251 24.6676 71.8586 25.1346C72.1101 25.5837 72.4604 25.943 72.9096 26.2125C73.3766 26.464 73.8976 26.5897 74.4724 26.5897C75.0473 26.5897 75.5593 26.464 76.0084 26.2125C76.4575 25.943 76.8078 25.5747 77.0593 25.1077C77.3108 24.6406 77.4365 24.0837 77.4365 23.437V14.8411H80.9665V29.4999H77.6252V26.6167L77.9216 27.1286C77.5802 28.0269 77.0144 28.7005 76.2239 29.1496C75.4515 29.5987 74.5443 29.8233 73.5024 29.8233Z" fill="#0D1220"/>
<path d="M84.2478 29.4999V14.8411H87.5622V18.2364L87.185 17.6705C87.4545 16.6106 87.9934 15.8202 88.8018 15.2992C89.6102 14.7783 90.5623 14.5178 91.6581 14.5178C92.8617 14.5178 93.9216 14.8321 94.8377 15.4609C95.7539 16.0896 96.3467 16.916 96.6162 17.94L95.6192 18.0208C96.0683 16.8531 96.742 15.9819 97.6402 15.407C98.5384 14.8142 99.5713 14.5178 100.739 14.5178C101.781 14.5178 102.706 14.7513 103.514 15.2184C104.341 15.6854 104.988 16.3411 105.455 17.1855C105.922 18.0118 106.155 18.9729 106.155 20.0687V29.4999H102.625V20.904C102.625 20.2573 102.508 19.7004 102.275 19.2334C102.041 18.7663 101.718 18.407 101.305 18.1555C100.892 17.8861 100.389 17.7513 99.7959 17.7513C99.239 17.7513 98.745 17.8861 98.3138 18.1555C97.8827 18.407 97.5503 18.7663 97.3168 19.2334C97.0833 19.7004 96.9665 20.2573 96.9665 20.904V29.4999H93.4365V20.904C93.4365 20.2573 93.3198 19.7004 93.0862 19.2334C92.8527 18.7663 92.5204 18.407 92.0892 18.1555C91.676 17.8861 91.182 17.7513 90.6072 17.7513C90.0503 17.7513 89.5563 17.8861 89.1251 18.1555C88.694 18.407 88.3617 18.7663 88.1281 19.2334C87.8946 19.7004 87.7778 20.2573 87.7778 20.904V29.4999H84.2478Z" fill="#0D1220"/>
<path d="M116.309 29.8233C114.872 29.8233 113.561 29.4909 112.375 28.8263C111.207 28.1616 110.273 27.2544 109.573 26.1047C108.89 24.955 108.549 23.6436 108.549 22.1705C108.549 20.6975 108.89 19.3861 109.573 18.2364C110.273 17.0867 111.207 16.1795 112.375 15.5148C113.543 14.8501 114.854 14.5178 116.309 14.5178C117.746 14.5178 119.049 14.8501 120.217 15.5148C121.384 16.1795 122.309 17.0867 122.992 18.2364C123.693 19.3681 124.043 20.6795 124.043 22.1705C124.043 23.6436 123.693 24.955 122.992 26.1047C122.291 27.2544 121.357 28.1616 120.19 28.8263C119.022 29.4909 117.729 29.8233 116.309 29.8233ZM116.309 26.5897C117.1 26.5897 117.791 26.4011 118.384 26.0239C118.995 25.6466 119.471 25.1256 119.812 24.461C120.172 23.7783 120.351 23.0148 120.351 22.1705C120.351 21.3082 120.172 20.5537 119.812 19.907C119.471 19.2424 118.995 18.7214 118.384 18.3441C117.791 17.9489 117.1 17.7513 116.309 17.7513C115.501 17.7513 114.791 17.9489 114.181 18.3441C113.57 18.7214 113.085 19.2424 112.725 19.907C112.384 20.5537 112.213 21.3082 112.213 22.1705C112.213 23.0148 112.384 23.7783 112.725 24.461C113.085 25.1256 113.57 25.6466 114.181 26.0239C114.791 26.4011 115.501 26.5897 116.309 26.5897Z" fill="#0D1220"/>
<path d="M127.016 29.4999V9.42492H130.681V26.2664H139.277V29.4999H127.016Z" fill="#FC7834"/>
<path d="M148.303 29.8233C146.794 29.8233 145.474 29.482 144.342 28.7993C143.21 28.1167 142.33 27.1915 141.701 26.0239C141.072 24.8562 140.758 23.5628 140.758 22.1436C140.758 20.6705 141.072 19.3681 141.701 18.2364C142.348 17.0867 143.219 16.1795 144.315 15.5148C145.429 14.8501 146.668 14.5178 148.034 14.5178C149.183 14.5178 150.189 14.7064 151.052 15.0836C151.932 15.4609 152.677 15.9819 153.288 16.6465C153.899 17.3112 154.366 18.0747 154.689 18.937C155.013 19.7813 155.174 20.6975 155.174 21.6855C155.174 21.937 155.156 22.1975 155.12 22.4669C155.102 22.7364 155.058 22.9699 154.986 23.1675H143.668V20.4729H152.992L151.321 21.7394C151.483 20.913 151.438 20.1765 151.186 19.5298C150.953 18.8831 150.558 18.3711 150.001 17.9938C149.462 17.6166 148.806 17.428 148.034 17.428C147.297 17.428 146.641 17.6166 146.066 17.9938C145.492 18.3531 145.052 18.8921 144.746 19.6106C144.459 20.3112 144.351 21.1645 144.423 22.1705C144.351 23.0687 144.468 23.8681 144.773 24.5687C145.096 25.2514 145.563 25.7813 146.174 26.1586C146.803 26.5358 147.522 26.7245 148.33 26.7245C149.138 26.7245 149.821 26.5538 150.378 26.2125C150.953 25.8712 151.402 25.4131 151.725 24.8382L154.582 26.2394C154.294 26.94 153.845 27.5598 153.234 28.0987C152.623 28.6376 151.896 29.0598 151.052 29.3652C150.225 29.6706 149.309 29.8233 148.303 29.8233Z" fill="#FC7834"/>
<path d="M162.244 29.8233C161.22 29.8233 160.331 29.6526 159.576 29.3113C158.822 28.97 158.238 28.4849 157.825 27.8562C157.411 27.2095 157.205 26.464 157.205 25.6197C157.205 24.8113 157.384 24.0927 157.744 23.464C158.103 22.8172 158.66 22.2783 159.414 21.8472C160.169 21.416 161.121 21.1106 162.271 20.931L167.067 20.1496V22.8442L162.944 23.5448C162.244 23.6705 161.723 23.8951 161.381 24.2184C161.04 24.5418 160.869 24.964 160.869 25.4849C160.869 25.9879 161.058 26.3921 161.435 26.6975C161.831 26.9849 162.316 27.1286 162.89 27.1286C163.627 27.1286 164.274 26.976 164.831 26.6706C165.405 26.3472 165.846 25.9071 166.151 25.3502C166.474 24.7933 166.636 24.1825 166.636 23.5178V19.7454C166.636 19.1166 166.384 18.5956 165.882 18.1825C165.396 17.7513 164.75 17.5358 163.941 17.5358C163.187 17.5358 162.513 17.7423 161.92 18.1555C161.346 18.5507 160.923 19.0807 160.654 19.7454L157.771 18.3441C158.058 17.5717 158.507 16.907 159.118 16.3501C159.747 15.7753 160.483 15.3262 161.328 15.0028C162.172 14.6794 163.088 14.5178 164.076 14.5178C165.28 14.5178 166.34 14.7423 167.256 15.1914C168.172 15.6226 168.882 16.2334 169.385 17.0238C169.905 17.7962 170.166 18.7034 170.166 19.7454V29.4999H166.825V26.9939L167.579 26.94C167.202 27.5688 166.753 28.0987 166.232 28.5299C165.711 28.943 165.118 29.2664 164.453 29.4999C163.789 29.7155 163.052 29.8233 162.244 29.8233Z" fill="#FC7834"/>
<path d="M180.246 29.8233C178.827 29.8233 177.56 29.4909 176.447 28.8263C175.333 28.1436 174.453 27.2185 173.806 26.0508C173.159 24.8831 172.836 23.5897 172.836 22.1705C172.836 20.7334 173.159 19.44 173.806 18.2903C174.453 17.1405 175.333 16.2244 176.447 15.5417C177.578 14.8591 178.836 14.5178 180.219 14.5178C181.333 14.5178 182.321 14.7423 183.183 15.1914C184.063 15.6226 184.755 16.2334 185.258 17.0238L184.719 17.7513V9.10156H188.249V29.4999H184.908V26.6706L185.285 27.3712C184.782 28.1616 184.081 28.7724 183.183 29.2035C182.285 29.6167 181.306 29.8233 180.246 29.8233ZM180.623 26.5897C181.432 26.5897 182.141 26.4011 182.752 26.0239C183.363 25.6466 183.839 25.1256 184.18 24.461C184.539 23.7963 184.719 23.0328 184.719 22.1705C184.719 21.3262 184.539 20.5717 184.18 19.907C183.839 19.2244 183.363 18.6945 182.752 18.3172C182.141 17.94 181.432 17.7513 180.623 17.7513C179.833 17.7513 179.123 17.9489 178.494 18.3441C177.866 18.7214 177.372 19.2424 177.012 19.907C176.671 20.5537 176.5 21.3082 176.5 22.1705C176.5 23.0328 176.671 23.7963 177.012 24.461C177.372 25.1256 177.866 25.6466 178.494 26.0239C179.123 26.4011 179.833 26.5897 180.623 26.5897Z" fill="#FC7834"/>
<path d="M197.111 29.8233C195.548 29.8233 194.183 29.455 193.015 28.7185C191.865 27.964 191.075 26.949 190.644 25.6735L193.285 24.4071C193.662 25.2334 194.183 25.8801 194.848 26.3472C195.53 26.8143 196.285 27.0478 197.111 27.0478C197.758 27.0478 198.27 26.9041 198.647 26.6167C199.024 26.3292 199.213 25.952 199.213 25.4849C199.213 25.1975 199.132 24.964 198.97 24.7843C198.827 24.5867 198.62 24.425 198.351 24.2993C198.099 24.1556 197.821 24.0388 197.515 23.949L195.117 23.2753C193.877 22.916 192.934 22.3681 192.288 21.6316C191.659 20.8951 191.345 20.0238 191.345 19.0178C191.345 18.1196 191.569 17.3382 192.018 16.6735C192.485 15.9908 193.123 15.4609 193.931 15.0836C194.758 14.7064 195.701 14.5178 196.761 14.5178C198.144 14.5178 199.366 14.8501 200.425 15.5148C201.485 16.1795 202.24 17.1136 202.689 18.3172L199.994 19.5837C199.743 18.919 199.321 18.3891 198.728 17.9938C198.135 17.5986 197.47 17.401 196.734 17.401C196.141 17.401 195.674 17.5358 195.333 17.8052C194.991 18.0747 194.821 18.425 194.821 18.8561C194.821 19.1256 194.892 19.3591 195.036 19.5567C195.18 19.7543 195.377 19.916 195.629 20.0418C195.898 20.1675 196.204 20.2843 196.545 20.3921L198.889 21.0927C200.093 21.452 201.018 21.9909 201.665 22.7095C202.33 23.428 202.662 24.3083 202.662 25.3502C202.662 26.2304 202.428 27.0119 201.961 27.6945C201.494 28.3592 200.848 28.8802 200.021 29.2574C199.195 29.6347 198.225 29.8233 197.111 29.8233Z" fill="#FC7834"/>
<defs>
<linearGradient id="paint0_linear_2028_33" x1="0.000295558" y1="4.60782" x2="37" y2="39" gradientUnits="userSpaceOnUse">
<stop stop-color="#FC6E35"/>
<stop offset="1" stop-color="#FB2C3C"/>
</linearGradient>
</defs>
</svg>
