<svg width="204" height="40" viewBox="0 0 204 40" fill="none" xmlns="http://www.w3.org/2000/svg">
<rect width="40" height="40" rx="11" fill="url(#paint0_linear_2034_2)"/>
<path d="M16.333 10.958C17.338 9.13003 19.6349 8.46284 21.4629 9.46777L22.3174 9.9375C24.1452 10.9426 24.8126 13.2394 23.8076 15.0674L20.5967 20.9053C19.9139 20.442 19.0798 20.1898 18.1924 20.2373C16.0342 20.3531 14.3785 22.1962 14.4941 24.3545C14.6098 26.5128 16.453 28.1683 18.6113 28.0527C20.7697 27.9371 22.4252 26.0939 22.3096 23.9355C22.2907 23.584 22.2255 23.2461 22.1211 22.9268L28.3027 22.8721C30.3887 22.8533 32.0955 24.5293 32.1143 26.6152L32.123 27.5898C32.1416 29.6756 30.4657 31.3816 28.3799 31.4004L12.0537 31.5469C10.2693 31.5629 8.7635 30.3388 8.35352 28.6787C7.86419 27.6253 7.86533 26.3615 8.46777 25.2656L16.333 10.958Z" fill="white"/>
<path d="M53.9401 29.5V9.42499H57.6048V26.2664H66.2007V29.5H53.9401ZM73.5023 29.8234C72.3706 29.8234 71.3825 29.5719 70.5382 29.0689C69.7119 28.5659 69.0741 27.8653 68.625 26.967C68.1939 26.0688 67.9783 25.0179 67.9783 23.8143V14.8412H71.5083V23.5179C71.5083 24.1287 71.6251 24.6676 71.8586 25.1347C72.1101 25.5838 72.4604 25.9431 72.9095 26.2125C73.3766 26.464 73.8975 26.5898 74.4724 26.5898C75.0472 26.5898 75.5592 26.464 76.0083 26.2125C76.4574 25.9431 76.8077 25.5748 77.0592 25.1078C77.3107 24.6407 77.4365 24.0838 77.4365 23.4371V14.8412H80.9664V29.5H77.6251V26.6167L77.9215 27.1287C77.5802 28.0269 77.0143 28.7006 76.2239 29.1497C75.4514 29.5988 74.5442 29.8234 73.5023 29.8234ZM84.2478 29.5V14.8412H87.5622V18.2364L87.1849 17.6706C87.4544 16.6107 87.9933 15.8203 88.8017 15.2993C89.6101 14.7783 90.5622 14.5178 91.658 14.5178C92.8616 14.5178 93.9215 14.8322 94.8377 15.461C95.7539 16.0897 96.3467 16.9161 96.6162 17.94L95.6191 18.0209C96.0682 16.8532 96.7419 15.9819 97.6401 15.4071C98.5383 14.8143 99.5713 14.5178 100.739 14.5178C101.781 14.5178 102.706 14.7514 103.514 15.2185C104.341 15.6855 104.987 16.3412 105.455 17.1855C105.922 18.0119 106.155 18.973 106.155 20.0688V29.5H102.625V20.9041C102.625 20.2574 102.508 19.7005 102.275 19.2335C102.041 18.7664 101.718 18.4071 101.305 18.1556C100.892 17.8861 100.389 17.7514 99.7958 17.7514C99.2389 17.7514 98.7449 17.8861 98.3138 18.1556C97.8826 18.4071 97.5503 18.7664 97.3168 19.2335C97.0832 19.7005 96.9665 20.2574 96.9665 20.9041V29.5H93.4365V20.9041C93.4365 20.2574 93.3197 19.7005 93.0862 19.2335C92.8527 18.7664 92.5203 18.4071 92.0892 18.1556C91.676 17.8861 91.182 17.7514 90.6071 17.7514C90.0502 17.7514 89.5562 17.8861 89.1251 18.1556C88.6939 18.4071 88.3616 18.7664 88.1281 19.2335C87.8945 19.7005 87.7778 20.2574 87.7778 20.9041V29.5H84.2478ZM116.309 29.8234C114.872 29.8234 113.561 29.491 112.375 28.8263C111.207 28.1617 110.273 27.2545 109.573 26.1048C108.89 24.9551 108.549 23.6437 108.549 22.1706C108.549 20.6975 108.89 19.3861 109.573 18.2364C110.273 17.0867 111.207 16.1795 112.375 15.5149C113.543 14.8502 114.854 14.5178 116.309 14.5178C117.746 14.5178 119.049 14.8502 120.216 15.5149C121.384 16.1795 122.309 17.0867 122.992 18.2364C123.693 19.3682 124.043 20.6796 124.043 22.1706C124.043 23.6437 123.693 24.9551 122.992 26.1048C122.291 27.2545 121.357 28.1617 120.19 28.8263C119.022 29.491 117.728 29.8234 116.309 29.8234ZM116.309 26.5898C117.1 26.5898 117.791 26.4012 118.384 26.0239C118.995 25.6467 119.471 25.1257 119.812 24.461C120.172 23.7784 120.351 23.0149 120.351 22.1706C120.351 21.3083 120.172 20.5538 119.812 19.9071C119.471 19.2424 118.995 18.7215 118.384 18.3442C117.791 17.949 117.1 17.7514 116.309 17.7514C115.501 17.7514 114.791 17.949 114.181 18.3442C113.57 18.7215 113.085 19.2424 112.725 19.9071C112.384 20.5538 112.213 21.3083 112.213 22.1706C112.213 23.0149 112.384 23.7784 112.725 24.461C113.085 25.1257 113.57 25.6467 114.181 26.0239C114.791 26.4012 115.501 26.5898 116.309 26.5898Z" fill="white"/>
<path d="M127.016 29.5V9.42499H130.681V26.2664H139.277V29.5H127.016ZM148.303 29.8234C146.794 29.8234 145.474 29.482 144.342 28.7994C143.21 28.1168 142.33 27.1916 141.701 26.0239C141.072 24.8563 140.758 23.5628 140.758 22.1437C140.758 20.6706 141.072 19.3682 141.701 18.2364C142.348 17.0867 143.219 16.1795 144.315 15.5149C145.429 14.8502 146.668 14.5178 148.034 14.5178C149.183 14.5178 150.189 14.7065 151.052 15.0837C151.932 15.461 152.677 15.9819 153.288 16.6466C153.899 17.3113 154.366 18.0748 154.689 18.937C155.013 19.7814 155.174 20.6975 155.174 21.6856C155.174 21.9371 155.156 22.1975 155.12 22.467C155.102 22.7365 155.058 22.97 154.986 23.1676H143.668V20.473H152.992L151.321 21.7395C151.483 20.9131 151.438 20.1766 151.186 19.5299C150.953 18.8832 150.557 18.3712 150.001 17.9939C149.462 17.6167 148.806 17.428 148.034 17.428C147.297 17.428 146.641 17.6167 146.066 17.9939C145.492 18.3532 145.051 18.8921 144.746 19.6107C144.459 20.3113 144.351 21.1646 144.423 22.1706C144.351 23.0688 144.468 23.8682 144.773 24.5688C145.096 25.2515 145.563 25.7814 146.174 26.1587C146.803 26.5359 147.522 26.7245 148.33 26.7245C149.138 26.7245 149.821 26.5539 150.378 26.2125C150.953 25.8712 151.402 25.4131 151.725 24.8383L154.581 26.2395C154.294 26.9401 153.845 27.5599 153.234 28.0988C152.623 28.6377 151.896 29.0599 151.052 29.3653C150.225 29.6707 149.309 29.8234 148.303 29.8234ZM162.244 29.8234C161.22 29.8234 160.331 29.6527 159.576 29.3114C158.822 28.9701 158.238 28.485 157.825 27.8563C157.411 27.2096 157.205 26.464 157.205 25.6197C157.205 24.8113 157.384 24.0928 157.744 23.464C158.103 22.8173 158.66 22.2784 159.414 21.8472C160.169 21.4161 161.121 21.1107 162.271 20.9311L167.067 20.1496V22.8443L162.944 23.5449C162.244 23.6706 161.723 23.8952 161.381 24.2185C161.04 24.5419 160.869 24.964 160.869 25.485C160.869 25.988 161.058 26.3922 161.435 26.6976C161.831 26.985 162.316 27.1287 162.89 27.1287C163.627 27.1287 164.274 26.976 164.831 26.6706C165.405 26.3473 165.846 25.9072 166.151 25.3503C166.474 24.7934 166.636 24.1826 166.636 23.5179V19.7454C166.636 19.1167 166.384 18.5957 165.881 18.1825C165.396 17.7514 164.75 17.5358 163.941 17.5358C163.187 17.5358 162.513 17.7424 161.92 18.1556C161.345 18.5508 160.923 19.0808 160.654 19.7454L157.771 18.3442C158.058 17.5718 158.507 16.9071 159.118 16.3502C159.747 15.7753 160.483 15.3262 161.328 15.0029C162.172 14.6795 163.088 14.5178 164.076 14.5178C165.28 14.5178 166.34 14.7424 167.256 15.1915C168.172 15.6226 168.881 16.2334 169.384 17.0239C169.905 17.7963 170.166 18.7035 170.166 19.7454V29.5H166.825V26.994L167.579 26.9401C167.202 27.5688 166.753 28.0988 166.232 28.5299C165.711 28.9431 165.118 29.2665 164.453 29.5C163.789 29.7156 163.052 29.8234 162.244 29.8234ZM180.246 29.8234C178.827 29.8234 177.56 29.491 176.447 28.8263C175.333 28.1437 174.452 27.2185 173.806 26.0509C173.159 24.8832 172.836 23.5898 172.836 22.1706C172.836 20.7335 173.159 19.44 173.806 18.2903C174.452 17.1406 175.333 16.2244 176.447 15.5418C177.578 14.8592 178.836 14.5178 180.219 14.5178C181.333 14.5178 182.321 14.7424 183.183 15.1915C184.063 15.6226 184.755 16.2334 185.258 17.0239L184.719 17.7514V9.10164H188.249V29.5H184.908V26.6706L185.285 27.3712C184.782 28.1617 184.081 28.7724 183.183 29.2036C182.285 29.6168 181.306 29.8234 180.246 29.8234ZM180.623 26.5898C181.432 26.5898 182.141 26.4012 182.752 26.0239C183.363 25.6467 183.839 25.1257 184.18 24.461C184.539 23.7964 184.719 23.0329 184.719 22.1706C184.719 21.3263 184.539 20.5718 184.18 19.9071C183.839 19.2245 183.363 18.6945 182.752 18.3173C182.141 17.94 181.432 17.7514 180.623 17.7514C179.833 17.7514 179.123 17.949 178.494 18.3442C177.866 18.7215 177.372 19.2424 177.012 19.9071C176.671 20.5538 176.5 21.3083 176.5 22.1706C176.5 23.0329 176.671 23.7964 177.012 24.461C177.372 25.1257 177.866 25.6467 178.494 26.0239C179.123 26.4012 179.833 26.5898 180.623 26.5898ZM197.111 29.8234C195.548 29.8234 194.183 29.4551 193.015 28.7186C191.865 27.9641 191.075 26.9491 190.644 25.6736L193.285 24.4071C193.662 25.2335 194.183 25.8802 194.847 26.3473C195.53 26.8144 196.285 27.0479 197.111 27.0479C197.758 27.0479 198.27 26.9042 198.647 26.6167C199.024 26.3293 199.213 25.9521 199.213 25.485C199.213 25.1976 199.132 24.964 198.97 24.7844C198.827 24.5868 198.62 24.4251 198.351 24.2994C198.099 24.1556 197.821 24.0389 197.515 23.9491L195.117 23.2754C193.877 22.9161 192.934 22.3682 192.288 21.6317C191.659 20.8951 191.344 20.0239 191.344 19.0179C191.344 18.1197 191.569 17.3382 192.018 16.6736C192.485 15.9909 193.123 15.461 193.931 15.0837C194.758 14.7065 195.701 14.5178 196.761 14.5178C198.144 14.5178 199.365 14.8502 200.425 15.5149C201.485 16.1795 202.24 17.1137 202.689 18.3173L199.994 19.5838C199.743 18.9191 199.321 18.3891 198.728 17.9939C198.135 17.5987 197.47 17.4011 196.734 17.4011C196.141 17.4011 195.674 17.5358 195.333 17.8053C194.991 18.0748 194.821 18.4251 194.821 18.8562C194.821 19.1257 194.892 19.3592 195.036 19.5568C195.18 19.7544 195.377 19.9161 195.629 20.0418C195.898 20.1676 196.204 20.2844 196.545 20.3921L198.889 21.0927C200.093 21.452 201.018 21.991 201.665 22.7095C202.33 23.4281 202.662 24.3083 202.662 25.3503C202.662 26.2305 202.428 27.012 201.961 27.6946C201.494 28.3593 200.848 28.8802 200.021 29.2575C199.195 29.6347 198.225 29.8234 197.111 29.8234Z" fill="#FC7834"/>
<defs>
<linearGradient id="paint0_linear_2034_2" x1="0.000295558" y1="4.60782" x2="37" y2="39" gradientUnits="userSpaceOnUse">
<stop stop-color="#FC6E35"/>
<stop offset="1" stop-color="#FB2C3C"/>
</linearGradient>
</defs>
</svg>
