<svg width="766" height="178" viewBox="0 0 766 178" fill="none" xmlns="http://www.w3.org/2000/svg">
<rect width="178" height="178" rx="23" fill="#111111"/>
<path fill-rule="evenodd" clip-rule="evenodd" d="M124.923 58L124.536 66.0234L114.494 74.8183C109.009 79.6015 102.906 85.079 100.974 86.8534C99.0429 88.705 93.0172 94.1825 87.4549 99.0428C77.4893 107.838 77.412 107.915 79.7296 108.455C81.0429 108.686 91.2403 108.918 102.519 108.918C118.047 108.918 123.223 109.149 123.996 109.844C124.536 110.384 124.923 112.235 125 113.932C125 115.63 124.536 117.404 123.996 117.944C123.223 118.638 113.876 118.87 88.6137 118.947C60.2618 119.101 54.1588 118.947 53.927 118.098C53.8498 117.481 53.8498 116.324 54.1588 115.475C54.3906 114.627 58.6395 110.306 63.6609 105.832C68.6824 101.357 78.3391 92.871 85.1373 86.8534C91.9356 80.8359 99.4292 74.2011 105.996 68.0293H79.9614C57.4034 68.0293 53.7725 67.875 53.4635 66.872C53.2318 66.2549 53.0773 64.6347 53 63.3232C53 62.0117 53.309 60.3144 53.7725 59.4658C54.6223 58.0771 55.8584 58 124.923 58Z" fill="#39F265"/>
<path d="M106.09 99.5162C108.021 97.7418 136.015 71.2834 141.5 66.5002L126.948 66.5L90.2532 99.5162C83.4549 105.534 73.7983 114.02 68.7768 118.495C63.7554 122.969 59.5064 127.29 59.2747 128.138C58.9657 128.987 58.9657 130.144 59.0429 130.761C59.2747 131.61 65.3777 131.764 93.7296 131.61C118.991 131.533 128.339 131.301 129.112 130.607C129.652 130.067 130.116 128.292 130.116 126.595C130.039 124.898 129.652 123.046 129.112 122.506C128.339 121.812 123.163 121.581 107.635 121.581C96.3562 121.581 86.1588 121.349 84.8455 121.118C82.5279 120.578 82.6052 120.5 92.5708 111.706C98.133 106.845 104.159 101.368 106.09 99.5162Z" fill="#FEFDFA"/>
<path fill-rule="evenodd" clip-rule="evenodd" d="M594.089 41.0162C597.563 40.911 604.932 41.3321 610.406 41.8586C617.776 42.5956 621.881 43.6485 626.197 45.7542C629.356 47.3336 633.777 50.3869 635.988 52.598C638.093 54.809 641.567 60.0735 643.567 64.285C647.041 71.4446 647.252 72.3922 647.252 82.9211C647.252 89.0278 646.62 95.8716 645.989 98.1879C645.357 100.504 643.252 104.821 641.357 107.664C639.567 110.612 636.725 114.192 635.04 115.771C633.356 117.35 629.356 119.772 626.197 121.246C623.039 122.72 616.828 124.405 612.512 125.142C607.669 125.879 598.405 126.089 588.825 125.774C578.298 125.423 571.28 124.686 567.771 123.562C564.823 122.51 561.033 120.93 559.349 119.877C557.665 118.824 553.875 115.35 551.138 112.297C548.19 108.927 545.137 104.189 543.979 100.82C542.189 95.9769 541.874 93.0288 542.189 82.3946C542.505 71.2341 542.821 69.1283 545.348 63.6533C547.032 60.3893 550.506 55.4408 553.243 52.8086C556.085 50.1763 560.612 46.8071 563.56 45.4384C567.034 43.7537 571.982 42.5956 578.298 41.9638C583.457 41.5427 590.615 41.0162 594.089 41.0162V41.0162ZM573.245 57.0201C571.666 57.336 568.718 59.2312 566.613 61.1264C564.402 63.1268 562.086 66.8119 560.823 70.0759C559.454 73.761 558.823 78.2884 558.823 83.974C558.823 90.0807 559.454 94.0817 561.139 98.5038C562.402 101.768 564.402 105.453 565.665 106.611C566.929 107.769 570.718 109.559 574.192 110.507C578.509 111.875 584.088 112.402 592.51 112.402C599.142 112.402 606.722 111.875 609.354 111.349C611.986 110.717 615.144 110.086 616.512 109.77C617.776 109.454 620.302 107.98 622.092 106.4C623.987 104.716 626.408 101.557 627.566 99.2408C628.829 96.7139 629.882 91.9759 630.198 87.1326C630.514 81.447 630.198 77.4461 628.934 72.9187C627.882 69.4441 626.408 65.5485 625.566 64.285C624.724 62.9163 621.565 60.5999 618.618 59.0206C613.249 56.2831 612.196 56.1778 595.668 55.8619C586.088 55.7566 577.877 55.7566 577.245 55.9672C576.614 56.2831 574.929 56.7042 573.35 57.0201H573.245ZM305.009 41.8586L304.483 52.8086L290.797 64.8115C283.323 71.3393 275.006 78.8148 272.375 81.2365C269.743 83.7634 261.531 91.2389 253.952 97.8721C240.372 109.875 240.266 109.98 243.424 110.717C245.214 111.033 259.11 111.349 274.48 111.349C295.64 111.349 302.693 111.665 303.746 112.612C304.483 113.349 305.009 115.876 305.114 118.193C305.114 120.509 304.483 122.931 303.746 123.668C302.693 124.615 289.955 124.931 255.531 125.037C216.896 125.247 208.579 125.036 208.263 123.878C208.158 123.036 208.158 121.457 208.579 120.299C208.895 119.14 214.685 113.244 221.528 107.137C228.37 101.031 241.53 89.449 250.794 81.2365C260.058 73.024 270.269 63.9691 279.217 55.5461H243.74C213.001 55.5461 208.053 55.3355 207.632 53.9667C207.316 53.1244 207.105 50.9134 207 49.1235C207 47.3336 207.421 45.0172 208.053 43.859C209.211 41.9638 210.895 41.8586 305.009 41.8586ZM374.489 41.8586C379.437 41.8586 383.964 42.2797 384.596 42.7009C385.227 43.122 387.543 46.1754 389.649 49.5446C391.754 52.8086 393.439 55.7566 393.439 56.0725C393.439 56.3884 397.334 63.3374 401.966 71.6552C406.703 79.8677 411.546 88.2908 412.704 90.2913C413.756 92.2918 418.388 100.61 423.02 108.717C427.547 116.824 431.337 124.089 431.337 124.826C431.337 125.668 429.231 126.089 424.284 125.984C420.283 125.879 416.072 125.563 414.809 125.247C413.335 124.721 411.124 121.878 408.598 117.14C406.492 113.139 402.703 106.085 400.176 101.662C395.649 93.6605 395.439 93.4499 392.702 94.6081C391.017 95.2398 377.016 102.294 361.33 110.401C334.17 124.405 332.591 125.142 325.011 125.774C320.59 126.089 316.8 125.984 316.379 125.458C315.958 124.931 318.589 119.246 322.274 112.928C325.959 106.611 333.749 93.0288 339.539 82.9211C345.329 72.8134 352.803 59.8629 356.172 54.1773C359.541 48.597 363.015 43.4379 363.962 42.9114C364.804 42.385 369.542 41.9638 374.489 41.8586V41.8586ZM352.908 92.397C349.013 99.662 345.224 106.19 344.592 106.927C343.96 107.664 343.855 108.611 344.276 109.033C344.697 109.454 346.592 108.927 348.487 107.98C350.382 107.032 356.172 104.189 361.33 101.768C366.594 99.3461 375.332 95.2398 380.806 92.8182C386.28 90.2913 390.912 87.8696 391.123 87.4485C391.228 87.0273 388.491 81.1312 385.017 74.498C381.437 67.8648 378.385 61.5475 378.069 60.5999C377.788 59.3364 376.595 58.7047 374.489 58.7047C371.647 58.7047 370.91 59.547 365.752 69.023C362.594 74.6033 356.804 85.1321 352.908 92.397V92.397ZM680.097 42.385L687.361 51.861C691.361 57.1254 698.941 67.0225 704.205 73.9716C709.468 80.9206 714.1 87.1326 714.521 87.6591C715.048 88.2908 716.837 86.5009 718.838 83.4475C720.733 80.6047 725.891 73.6557 730.207 68.1807C734.523 62.7057 740.629 54.9143 743.893 50.8081C747.156 46.7018 750.209 43.122 750.841 42.7009C751.367 42.2797 755.052 41.8586 766 41.8586L765.579 125.563L758.736 125.879C754.104 125.984 751.578 125.668 751.051 124.826C750.63 124.089 750.525 117.35 750.841 109.77C751.156 102.189 751.051 89.449 749.788 66.8119L735.26 85.1321C727.259 95.2398 719.68 104.821 718.417 106.506C716.732 108.717 715.574 109.349 713.995 108.822C712.837 108.401 706.31 100.715 699.467 91.5547C692.625 82.4999 685.466 73.1292 679.887 66.6014V94.5028C679.887 119.561 679.676 122.615 678.097 123.984C676.939 125.037 674.097 125.563 663.464 125.563L663.043 85.7639C662.832 56.4937 663.043 45.4384 663.99 43.859C665.043 42.0691 666.096 41.8586 680.097 42.385V42.385ZM527.662 42.385L528.188 55.5461L465.551 56.0725L460.813 58.81C457.339 60.8105 455.339 63.0215 453.128 67.2331C451.549 70.3917 450.286 74.1821 450.286 78.7095H517.661V82.9211C517.661 85.2374 517.45 87.8696 517.134 88.712C516.713 90.0807 511.976 90.2913 483.447 90.2913C465.235 90.2913 450.286 90.6071 450.286 91.0283C450.286 91.5547 450.812 93.6605 451.339 95.7663C451.97 97.9773 454.181 101.768 456.392 104.084C458.497 106.506 461.761 109.243 463.445 110.191C466.182 111.665 470.92 111.875 527.662 111.875L528.188 125.037H495.869C464.708 125.037 463.235 124.931 457.655 122.615C454.497 121.351 450.286 119.035 448.286 117.666C446.286 116.192 442.917 112.402 440.706 109.243C438.601 106.085 435.969 100.61 435.021 97.135C433.548 92.2918 433.337 88.5014 433.653 80.8153C434.074 74.3927 435.021 68.7071 436.39 65.022C437.969 60.9158 440.39 57.5465 444.707 53.335C448.075 50.0711 451.97 46.8071 453.444 46.0701C454.918 45.3331 457.971 44.0696 460.287 43.3326C463.34 42.385 473.025 42.0691 527.662 42.385Z" fill="#39F265"/>
<path d="M546.34 169V141.415H549.681V166.037H562.503V169H546.34ZM593.088 169V141.415H609.736V144.378H596.428V153.699H608.874V156.662H596.428V166.037H609.951V169H593.088ZM642.301 169H638.799L648.927 141.415H652.375L662.504 169H659.002L650.759 145.779H650.544L642.301 169ZM643.594 158.225H657.709V161.188H643.594V158.225ZM700.726 169H692.213V141.415H701.103C703.779 141.415 706.069 141.967 707.972 143.072C709.876 144.167 711.335 145.743 712.35 147.8C713.364 149.847 713.872 152.298 713.872 155.154C713.872 158.027 713.36 160.501 712.336 162.575C711.313 164.64 709.822 166.23 707.865 167.343C705.907 168.448 703.527 169 700.726 169ZM695.554 166.037H700.51C702.791 166.037 704.681 165.597 706.181 164.717C707.68 163.837 708.798 162.584 709.535 160.959C710.271 159.334 710.639 157.399 710.639 155.154C710.639 152.927 710.276 151.01 709.548 149.402C708.821 147.786 707.734 146.547 706.289 145.685C704.843 144.814 703.043 144.378 700.888 144.378H695.554V166.037ZM759.973 148.311C759.811 146.947 759.156 145.887 758.006 145.133C756.857 144.378 755.447 144.001 753.777 144.001C752.556 144.001 751.487 144.199 750.571 144.594C749.665 144.989 748.955 145.532 748.443 146.224C747.94 146.915 747.689 147.701 747.689 148.581C747.689 149.317 747.864 149.95 748.214 150.48C748.574 151.001 749.031 151.436 749.588 151.786C750.145 152.128 750.729 152.41 751.339 152.635C751.95 152.85 752.511 153.026 753.023 153.16L755.824 153.915C756.543 154.103 757.342 154.364 758.222 154.696C759.111 155.028 759.959 155.481 760.768 156.056C761.585 156.622 762.258 157.349 762.788 158.238C763.318 159.127 763.583 160.218 763.583 161.511C763.583 163.002 763.192 164.349 762.411 165.552C761.639 166.755 760.507 167.711 759.017 168.421C757.535 169.13 755.735 169.485 753.615 169.485C751.64 169.485 749.929 169.166 748.484 168.529C747.047 167.891 745.916 167.002 745.09 165.862C744.272 164.721 743.81 163.397 743.702 161.888H747.15C747.24 162.93 747.59 163.792 748.201 164.474C748.82 165.148 749.602 165.651 750.545 165.983C751.496 166.306 752.52 166.468 753.615 166.468C754.891 166.468 756.035 166.261 757.05 165.848C758.065 165.426 758.868 164.843 759.461 164.097C760.054 163.343 760.35 162.463 760.35 161.457C760.35 160.541 760.094 159.796 759.582 159.221C759.07 158.647 758.397 158.18 757.562 157.821C756.727 157.461 755.824 157.147 754.855 156.878L751.46 155.908C749.305 155.288 747.599 154.404 746.342 153.255C745.085 152.105 744.456 150.601 744.456 148.742C744.456 147.198 744.874 145.851 745.709 144.702C746.553 143.543 747.685 142.645 749.103 142.008C750.531 141.361 752.125 141.038 753.885 141.038C755.663 141.038 757.243 141.357 758.626 141.994C760.009 142.623 761.104 143.485 761.912 144.58C762.73 145.676 763.161 146.92 763.206 148.311H759.973Z" fill="white"/>
</svg>
